<svg width="156" height="45" viewBox="0 0 156 45" fill="none" xmlns="http://www.w3.org/2000/svg">
<path d="M16.472 34.432C15.736 34.432 15.112 34.304 14.6 34.048C14.12 33.824 13.752 33.424 13.496 32.848L1.592 4.768C1.176 3.776 1.096 3.04 1.352 2.56C1.608 2.08 2.2 1.6 3.128 1.12C3.768 0.767998 4.328 0.591998 4.808 0.591998C5.288 0.559999 5.688 0.703999 6.008 1.024C6.36 1.312 6.664 1.792 6.92 2.464L16.424 26.272L25.832 2.704C26.12 2.064 26.424 1.568 26.744 1.216C27.064 0.831998 27.48 0.639997 27.992 0.639997C28.504 0.607998 29.112 0.783998 29.816 1.168C30.936 1.712 31.544 2.272 31.64 2.848C31.736 3.424 31.576 4.16 31.16 5.056L19.352 32.848C19.128 33.328 18.76 33.712 18.248 34C17.736 34.288 17.144 34.432 16.472 34.432ZM42.9669 34.768C40.8869 34.768 39.0629 34.432 37.4949 33.76C35.9589 33.088 34.6629 32.176 33.6069 31.024C32.5829 29.84 31.7989 28.528 31.2549 27.088C30.7429 25.616 30.4869 24.096 30.4869 22.528C30.4869 20.224 31.0149 18.176 32.0709 16.384C33.1269 14.592 34.5829 13.184 36.4389 12.16C38.3269 11.136 40.4869 10.624 42.9189 10.624C44.6469 10.624 46.1669 10.896 47.4789 11.44C48.7909 11.984 49.8789 12.704 50.7429 13.6C51.6389 14.464 52.3109 15.424 52.7589 16.48C53.2389 17.536 53.4789 18.56 53.4789 19.552C53.4789 21.248 53.0629 22.48 52.2309 23.248C51.4309 24.016 50.4229 24.4 49.2069 24.4H36.5349C36.5669 25.488 36.9029 26.432 37.5429 27.232C38.2149 28.032 39.0469 28.656 40.0389 29.104C41.0629 29.52 42.1029 29.728 43.1589 29.728C43.9589 29.728 44.6629 29.68 45.2709 29.584C45.9109 29.488 46.4549 29.376 46.9029 29.248C47.3509 29.088 47.7349 28.928 48.0549 28.768C48.4069 28.608 48.7269 28.464 49.0149 28.336C49.3029 28.208 49.5749 28.128 49.8309 28.096C50.1829 28.064 50.5349 28.144 50.8869 28.336C51.2389 28.528 51.5269 28.864 51.7509 29.344C51.9429 29.664 52.0709 29.968 52.1349 30.256C52.2309 30.512 52.2789 30.768 52.2789 31.024C52.2789 31.664 51.8949 32.272 51.1269 32.848C50.3589 33.392 49.2709 33.84 47.8629 34.192C46.4869 34.576 44.8549 34.768 42.9669 34.768ZM36.5349 20.992H46.3749C46.9189 20.992 47.3349 20.912 47.6229 20.752C47.9109 20.56 48.0549 20.176 48.0549 19.6C48.0549 18.864 47.8309 18.208 47.3829 17.632C46.9349 17.024 46.3269 16.56 45.5589 16.24C44.7909 15.888 43.8949 15.712 42.8709 15.712C41.6869 15.712 40.6149 15.952 39.6549 16.432C38.6949 16.88 37.9269 17.504 37.3509 18.304C36.8069 19.104 36.5349 20 36.5349 20.992ZM67.7379 44.08C66.5859 44.08 65.4819 43.936 64.4259 43.648C63.3699 43.392 62.4099 43.04 61.5459 42.592C60.7139 42.144 60.0419 41.664 59.5299 41.152C59.0499 40.64 58.8099 40.16 58.8099 39.712C58.8099 39.264 58.8739 38.88 59.0019 38.56C59.1619 38.24 59.3859 37.92 59.6739 37.6C60.0579 37.216 60.3619 36.928 60.5859 36.736C60.8419 36.544 61.1779 36.448 61.5939 36.448C61.9459 36.448 62.2819 36.576 62.6019 36.832C62.9539 37.088 63.3539 37.376 63.8019 37.696C64.2499 38.016 64.7939 38.304 65.4339 38.56C66.0739 38.816 66.8899 38.944 67.8819 38.944C68.7139 38.944 69.4819 38.8 70.1859 38.512C70.8899 38.224 71.4819 37.792 71.9619 37.216C72.4739 36.672 72.8739 36.016 73.1619 35.248C73.4499 34.48 73.5939 33.616 73.5939 32.656L73.5459 12.784C73.6099 12.048 73.8659 11.536 74.3139 11.248C74.7619 10.928 75.4499 10.768 76.3779 10.768C77.2419 10.768 77.8659 10.896 78.2499 11.152C78.6339 11.376 78.8739 11.712 78.9699 12.16C79.0659 12.576 79.1139 13.04 79.1139 13.552V32.992C79.1139 34.752 78.8099 36.32 78.2019 37.696C77.5939 39.072 76.7619 40.224 75.7059 41.152C74.6499 42.112 73.4339 42.832 72.0579 43.312C70.7139 43.824 69.2739 44.08 67.7379 44.08ZM67.2099 33.856C65.7059 33.856 64.2979 33.568 62.9859 32.992C61.7059 32.416 60.5699 31.6 59.5779 30.544C58.6179 29.488 57.8499 28.272 57.2739 26.896C56.7299 25.488 56.4579 23.968 56.4579 22.336C56.4579 20.736 56.7299 19.248 57.2739 17.872C57.8499 16.496 58.6179 15.28 59.5779 14.224C60.5699 13.168 61.7059 12.352 62.9859 11.776C64.2979 11.168 65.6899 10.864 67.1619 10.864C68.6019 10.864 69.8499 11.152 70.9059 11.728C71.9939 12.272 72.8899 13.056 73.5939 14.08C74.2979 15.104 74.8259 16.32 75.1779 17.728C75.5619 19.136 75.7539 20.688 75.7539 22.384C75.7539 24.72 75.4339 26.752 74.7939 28.48C74.1539 30.208 73.2099 31.536 71.9619 32.464C70.7139 33.392 69.1299 33.856 67.2099 33.856ZM67.7379 28.432C68.8259 28.432 69.7859 28.176 70.6179 27.664C71.4819 27.12 72.1539 26.384 72.6339 25.456C73.1459 24.528 73.4019 23.488 73.4019 22.336C73.4019 21.152 73.1459 20.112 72.6339 19.216C72.1539 18.288 71.4819 17.568 70.6179 17.056C69.7539 16.544 68.7779 16.288 67.6899 16.288C66.6019 16.288 65.6259 16.56 64.7619 17.104C63.9299 17.616 63.2739 18.32 62.7939 19.216C62.3139 20.112 62.0739 21.152 62.0739 22.336C62.0739 23.52 62.3139 24.576 62.7939 25.504C63.3059 26.4 63.9779 27.12 64.8099 27.664C65.6739 28.176 66.6499 28.432 67.7379 28.432ZM103.442 34.384C102.514 34.384 101.826 34.208 101.378 33.856C100.93 33.504 100.706 33.024 100.706 32.416L101.042 30.832C100.786 31.248 100.354 31.744 99.7456 32.32C99.1376 32.864 98.3376 33.36 97.3456 33.808C96.3536 34.224 95.1536 34.432 93.7456 34.432C92.2416 34.432 90.8176 34.128 89.4736 33.52C88.1616 32.88 86.9936 32.016 85.9696 30.928C84.9776 29.808 84.1776 28.544 83.5696 27.136C82.9936 25.696 82.7056 24.16 82.7056 22.528C82.7056 20.96 82.9936 19.488 83.5696 18.112C84.1776 16.704 84.9936 15.456 86.0176 14.368C87.0416 13.28 88.2096 12.432 89.5216 11.824C90.8656 11.184 92.2736 10.864 93.7456 10.864C95.0576 10.864 96.1616 11.04 97.0576 11.392C97.9856 11.744 98.7696 12.192 99.4096 12.736C100.05 13.248 100.578 13.792 100.994 14.368L100.706 12.976C100.706 12.272 100.93 11.744 101.378 11.392C101.826 11.008 102.53 10.816 103.49 10.816C104.386 10.816 105.026 10.96 105.41 11.248C105.794 11.504 106.034 11.872 106.13 12.352C106.226 12.8 106.274 13.312 106.274 13.888V31.456C106.274 32 106.226 32.496 106.13 32.944C106.034 33.392 105.778 33.744 105.362 34C104.978 34.256 104.338 34.384 103.442 34.384ZM94.6096 28.816C95.6976 28.816 96.6736 28.544 97.5376 28C98.4016 27.456 99.0896 26.72 99.6016 25.792C100.146 24.832 100.418 23.776 100.418 22.624C100.418 21.376 100.146 20.288 99.6016 19.36C99.0576 18.432 98.3376 17.712 97.4416 17.2C96.5776 16.656 95.6016 16.384 94.5136 16.384C93.3296 16.384 92.2736 16.672 91.3456 17.248C90.4176 17.792 89.6816 18.544 89.1376 19.504C88.6256 20.432 88.3696 21.488 88.3696 22.672C88.3696 23.824 88.6416 24.864 89.1856 25.792C89.7296 26.72 90.4656 27.456 91.3936 28C92.3536 28.544 93.4256 28.816 94.6096 28.816ZM133.508 34.912C132.068 34.912 130.756 34.736 129.572 34.384C128.42 34.032 127.396 33.584 126.5 33.04C125.636 32.496 124.9 31.936 124.292 31.36C123.684 30.784 123.236 30.256 122.948 29.776C122.532 29.2 122.26 28.688 122.132 28.24C122.004 27.792 122.036 27.36 122.228 26.944C122.452 26.496 122.852 26.032 123.428 25.552C124.004 25.04 124.532 24.784 125.012 24.784C125.524 24.752 126.004 24.896 126.452 25.216C126.932 25.536 127.396 25.984 127.844 26.56C128.612 27.584 129.476 28.32 130.436 28.768C131.396 29.184 132.356 29.392 133.316 29.392C134.564 29.392 135.652 29.232 136.58 28.912C137.508 28.56 138.228 28.048 138.74 27.376C139.284 26.704 139.556 25.84 139.556 24.784C139.556 23.92 139.284 23.216 138.74 22.672C138.228 22.096 137.54 21.616 136.676 21.232C135.812 20.816 134.836 20.448 133.748 20.128C132.692 19.776 131.62 19.392 130.532 18.976C129.764 18.72 128.996 18.416 128.228 18.064C127.46 17.68 126.74 17.248 126.068 16.768C125.428 16.288 124.852 15.728 124.34 15.088C123.86 14.416 123.476 13.648 123.188 12.784C122.9 11.92 122.756 10.912 122.756 9.76C122.756 7.936 123.204 6.336 124.1 4.96C124.996 3.552 126.244 2.448 127.844 1.648C129.444 0.815998 131.268 0.399998 133.316 0.399998C134.628 0.399998 135.796 0.527998 136.82 0.783998C137.876 1.008 138.772 1.312 139.508 1.696C140.276 2.048 140.9 2.416 141.38 2.8C141.892 3.152 142.26 3.456 142.484 3.712C143.22 4.448 143.62 5.072 143.684 5.584C143.78 6.064 143.492 6.72 142.82 7.552C142.148 8.416 141.492 8.896 140.852 8.992C140.244 9.056 139.556 8.8 138.788 8.224C138.276 7.68 137.764 7.248 137.252 6.928C136.74 6.576 136.164 6.32 135.524 6.16C134.916 6 134.164 5.92 133.268 5.92C132.628 5.92 132.004 6.016 131.396 6.208C130.82 6.368 130.324 6.624 129.908 6.976C129.492 7.296 129.156 7.696 128.9 8.176C128.676 8.656 128.564 9.2 128.564 9.808C128.564 10.64 128.788 11.328 129.236 11.872C129.716 12.384 130.356 12.816 131.156 13.168C131.956 13.488 132.852 13.792 133.844 14.08C134.836 14.368 135.844 14.672 136.868 14.992C137.924 15.344 138.964 15.76 139.988 16.24C141.012 16.72 141.924 17.328 142.724 18.064C143.524 18.768 144.164 19.664 144.644 20.752C145.124 21.808 145.364 23.104 145.364 24.64C145.364 26.4 145.028 27.936 144.356 29.248C143.684 30.56 142.772 31.632 141.62 32.464C140.468 33.296 139.188 33.904 137.78 34.288C136.372 34.704 134.948 34.912 133.508 34.912Z" fill="white"/>
<path d="M152.027 34.48C150.843 34.48 150.011 34.256 149.531 33.808C149.051 33.328 148.811 32.496 148.811 31.312C148.811 30.48 148.907 29.84 149.099 29.392C149.323 28.912 149.675 28.56 150.155 28.336C150.635 28.112 151.275 28 152.075 28C153.259 28 154.091 28.24 154.571 28.72C155.051 29.2 155.291 30.048 155.291 31.264C155.291 32.064 155.179 32.704 154.955 33.184C154.763 33.664 154.427 34 153.947 34.192C153.499 34.384 152.859 34.48 152.027 34.48Z" fill="#99BC85"/>
</svg>
